<svg width="443" height="100" xmlns="http://www.w3.org/2000/svg"><g fill-rule="nonzero" fill="none"><path d="M33.486 37.866c-.915-.915-2.196-.915-2.928 0l-7.685 7.693c-.915.915-.915 2.197 0 2.93l19.58 19.597c.914.916 2.195.916 2.927 0l56.725-56.776c.915-.916.915-2.198 0-2.93L94.42.686c-.915-.916-2.196-.916-2.928 0l-13.907 13.92C69.351 8.012 59.104 4.166 47.76 4.166H17.383C7.868 4.167 0 12.042 0 21.566v60.806c0 9.707 7.868 17.4 17.383 17.4h29.644c26.532 0 48.856-21.796 48.49-48.353 0-5.86-1.28-11.538-3.293-16.85-.366-1.098-1.83-1.281-2.745-.549l-9.515 9.524c-.366.366-.55.916-.366 1.465.549 2.198.732 4.579.732 7.143 0 18.132-15.188 32.6-33.303 32.6H17.383c-1.28 0-2.378-1.098-2.378-2.38V21.566c0-1.282 1.098-2.381 2.378-2.381H47.76c7.136 0 13.724 2.198 19.03 6.044L43.916 48.306l-10.43-10.44z" fill="#FAD130"/><path d="M161.432 4.123c5.178 0 11.88.762 17.21 6.707 3.503 3.659 5.178 8.537 5.178 14.634 0 6.555-1.98 11.738-6.092 15.549-5.483 5.03-12.489 5.64-17.21 5.64h-10.813c-2.894 0-5.33-2.439-5.33-5.335V9.458c0-3.049 2.284-5.335 5.33-5.335h11.727zm11.422 21.189c0-3.659-.913-6.403-2.741-8.384-2.132-2.135-5.483-3.354-10.052-3.354h-5.026V37.05h4.874c4.569 0 7.767-1.068 10.052-3.354 1.827-1.982 2.893-4.726 2.893-8.384zm22.236-21.8c2.894 0 5.33 2.44 5.33 5.336v32.927c0 2.896-2.436 5.336-5.33 5.336s-5.33-2.44-5.33-5.336V8.848c0-3.048 2.436-5.335 5.33-5.335zm38.228 19.818c3.502 2.439 5.178 5.793 5.178 10.213 0 8.232-6.701 13.72-16.6 13.72-3.808 0-8.073-.762-11.119-2.134-3.046-1.372-4.569-3.201-4.569-5.64 0-2.897 2.285-5.183 5.178-5.183 1.371 0 2.59.61 3.96 1.372 1.828.914 3.655 1.981 6.55 1.981 2.436 0 5.177-.61 5.177-3.506 0-1.524-1.37-2.591-4.264-3.658-.914-.305-1.98-.61-3.046-.915-2.437-.762-5.33-1.677-7.767-3.201-3.656-2.44-5.483-5.793-5.483-10.366 0-7.622 6.244-12.348 16.296-12.348 1.827 0 6.396.153 9.9 1.677 3.655 1.525 4.416 3.659 4.416 5.336 0 2.743-2.284 5.03-5.178 5.03-1.675 0-2.894-.61-4.265-1.22-1.675-.61-3.198-1.371-5.482-1.371-4.722 0-4.722 1.981-4.722 2.591 0 1.22 1.219 2.134 4.265 3.201.761.305 1.675.458 2.589.762 3.046.763 6.244 1.677 8.986 3.659zm40.055 11.738c2.893 0 5.178 2.134 5.026 5.183 0 2.134-1.676 4.116-4.265 5.183-3.046 1.067-6.549 1.677-10.204 1.677-13.25 0-22.54-8.994-22.54-21.8 0-11.89 10.204-21.646 22.692-21.646 3.655 0 6.55.458 9.443 1.525 2.589 1.067 4.112 2.896 4.112 5.183 0 2.896-2.132 5.03-5.026 5.03a7.074 7.074 0 01-3.198-.762c-1.219-.457-2.59-1.067-5.483-1.067-6.244 0-11.27 5.183-11.27 11.738 0 6.707 4.721 11.738 11.27 11.738 3.198 0 4.874-.61 6.244-1.22 1.066-.305 1.98-.762 3.199-.762zm29.546-31.555c13.098 0 22.54 9.146 22.54 21.799 0 12.5-9.442 21.646-22.54 21.646-13.098 0-22.54-9.146-22.54-21.646 0-12.653 9.442-21.8 22.54-21.8zm0 33.384c6.549 0 11.27-4.878 11.27-11.433s-4.873-11.585-11.27-11.585c-6.397 0-11.27 5.03-11.27 11.585 0 6.555 4.721 11.433 11.27 11.433zm56.96-33.384c3.046 0 5.483 2.287 5.33 5.488 0 .61 0 1.22-.304 1.829L352.57 42.08c-1.219 3.049-3.808 5.03-7.158 5.03-3.35 0-5.94-1.676-7.158-5.03l-11.88-31.25c-.152-.61-.304-1.22-.304-1.83 0-3.048 2.436-5.335 5.482-5.335 2.437 0 4.417 1.372 5.179 3.659l8.833 24.39 8.986-24.695c.761-2.134 2.893-3.506 5.33-3.506zm37.618 10.366h-17.819v6.707h14.773c2.59 0 4.722 2.134 4.722 4.878s-2.132 4.878-4.722 4.878h-14.773v6.555h17.82c2.589 0 4.72 2.134 4.72 4.878s-2.131 4.878-4.72 4.878h-23.15c-2.894 0-5.33-2.439-5.33-5.335V9.458c0-3.049 2.284-5.335 5.33-5.335h23.15c2.589 0 4.72 2.134 4.72 4.878s-2.131 4.878-4.72 4.878zm-230.403 42.39c3.457 0 6.42.494 9.384 1.482 2.716.989 4.445 2.966 4.445 5.438 0 2.966-2.223 5.438-5.433 5.438-1.482 0-2.47-.247-3.457-.742-1.235-.494-2.47-.988-5.186-.988-5.927 0-10.372 4.696-10.372 10.875 0 6.427 4.445 10.876 10.372 10.876 2.963 0 4.445-.494 5.68-1.236.987-.247 1.975-.741 3.21-.741 3.21 0 5.68 2.472 5.68 5.685 0 2.472-1.729 4.449-4.445 5.685-3.21 1.236-6.421 1.73-10.125 1.73-13.336 0-22.473-8.898-22.473-21.751 0-12.112 10.372-21.752 22.72-21.752zm121.566.198c1.815 0 6.354.151 9.833 1.665 3.63 1.514 4.387 3.634 4.387 5.3 0 2.725-2.27 4.996-5.143 4.996-1.664 0-2.875-.605-4.236-1.21-1.664-.607-3.177-1.364-5.446-1.364-4.69 0-4.69 1.969-4.69 2.574 0 1.212 1.21 2.12 4.236 3.18.756.303 1.664.454 2.572.757 3.025.757 6.202 1.666 8.925 3.634 3.48 2.423 5.143 5.754 5.143 10.145 0 8.176-6.656 13.627-16.489 13.627-3.782 0-8.017-.757-11.043-2.12-3.025-1.362-4.538-3.18-4.538-5.602 0-2.877 2.269-5.148 5.143-5.148 1.362 0 2.572.606 3.933 1.363 1.816.908 3.631 1.968 6.505 1.968 2.42 0 5.144-.606 5.144-3.483 0-1.514-1.362-2.574-4.236-3.633-.908-.303-1.967-.606-3.026-.909-2.42-.757-5.294-1.665-7.715-3.18-3.63-2.422-5.446-5.753-5.446-10.296 0-7.57 6.203-12.264 16.187-12.264zm-38.464.243c4.538 0 8.169.908 10.74 2.877 3.329 2.422 5.144 6.51 5.144 11.204 0 4.24-1.664 7.874-4.84 10.6-.757.454-1.362.908-1.968 1.362l5.598 8.328c.605.908.907 1.817.907 2.877 0 3.028-2.269 5.45-5.294 5.45-1.967 0-3.48-.756-4.539-2.422l-7.866-11.962h-6.354v9.237c0 2.876-2.42 5.3-5.294 5.3-2.874 0-5.295-2.424-5.295-5.3V62.009c0-3.028 2.27-5.299 5.295-5.299h13.766zm-43.673-.689c3.704 0 6.174 1.977 7.408 5.438l10.62 30.155c.246.495.493 1.73.493 2.472 0 3.213-2.47 5.438-5.927 5.438-2.963 0-4.939-1.483-5.68-3.955l-1.481-4.45h-11.607l-1.482 4.45c-.74 2.472-2.963 3.955-5.68 3.955-3.21 0-5.68-2.225-5.68-5.438 0-.741.248-1.483.495-2.225l11.112-30.402c1.482-3.708 3.705-5.438 7.409-5.438zm-.095 14.879l-3.351 9.453h6.398l-3.047-9.453zm43.163-4.802h-7.715v9.387h7.564c1.815 0 3.025-.151 3.933-.757 1.21-.908 1.815-2.12 1.815-3.937 0-1.665-.605-3.028-1.664-3.785-.908-.606-2.27-.908-3.933-.908zm177.3-61.975c4.57 0 8.225.914 10.814 2.896 3.35 2.44 5.178 6.555 5.178 11.28 0 4.269-1.675 7.927-4.874 10.671-.761.458-1.37.915-1.98 1.372l5.636 8.384c.609.915.913 1.83.913 2.897 0 3.048-2.284 5.488-5.33 5.488-1.98 0-3.503-.763-4.57-2.44L424.76 32.63h-6.396v9.299c0 2.896-2.437 5.335-5.33 5.335-2.895 0-5.331-2.44-5.331-5.335V9.458c0-3.049 2.284-5.335 5.33-5.335h13.86zm-.609 9.45h-7.767v9.452h7.615c1.828 0 3.046-.152 3.96-.762 1.218-.915 1.827-2.134 1.827-3.963 0-1.677-.609-3.05-1.675-3.811-.914-.61-2.284-.915-3.96-.915z" fill="#0A578C"/></g></svg>